<?xml version="1.0" encoding="utf-8"?>
<!-- Generator: Adobe Illustrator 22.1.0, SVG Export Plug-In . SVG Version: 6.00 Build 0)  -->
<svg version="1.1" id="Layer_1" xmlns="http://www.w3.org/2000/svg" xmlns:xlink="http://www.w3.org/1999/xlink" x="0px" y="0px"
	 viewBox="0 0 20 20" style="enable-background:new 0 0 20 20;" xml:space="preserve">
<style type="text/css">
	.st0{fill:#303245;}
</style>
<g>
	<g>
		<path class="st0" d="M15.2,14c1.4-1.7,2.1-4,1.8-6.4c-0.5-3.8-3.6-6.7-7.4-7.1c-5.2-0.5-9.5,3.8-9,9c0.3,3.8,3.3,6.9,7.1,7.4
			c2.4,0.3,4.7-0.4,6.4-1.8l4.1,4.1c0.3,0.3,0.8,0.3,1.2,0l0,0c0.3-0.3,0.3-0.8,0-1.2L15.2,14z M8.8,15.4c-3.6,0-6.6-3-6.6-6.6
			s3-6.6,6.6-6.6s6.6,3,6.6,6.6S12.4,15.4,8.8,15.4z"/>
	</g>
</g>
</svg>
